<svg id="Layer_1" data-name="Layer 1" xmlns="http://www.w3.org/2000/svg" xmlns:xlink="http://www.w3.org/1999/xlink" preserveAspectRatio="none" viewBox="0 0 841.9 1190.5">
  <defs>
    <style>
      .cls-1 {
        fill: #737578;
      }

      .cls-2 {
        fill: url(#linear-gradient);
      }

      .cls-3 {
        fill: url(#linear-gradient-2);
      }

      .cls-4 {
        fill: url(#linear-gradient-3);
      }

      .cls-5 {
        fill: url(#linear-gradient-4);
      }

      .cls-6 {
        fill: url(#linear-gradient-5);
      }

      .cls-7 {
        fill: url(#linear-gradient-6);
      }

      .cls-8 {
        fill: url(#linear-gradient-7);
      }

      .cls-9 {
        fill: url(#linear-gradient-8);
      }

      .cls-10 {
        fill: url(#linear-gradient-9);
      }

      .cls-11 {
        fill: url(#linear-gradient-10);
      }

      .cls-12 {
        fill: url(#linear-gradient-11);
      }

      .cls-13 {
        fill: #70cef7;
      }

      .cls-14 {
        fill: url(#linear-gradient-12);
      }
    </style>
    <linearGradient id="linear-gradient" x1="198.43" y1="166.52" x2="198.43" y2="56.82" gradientUnits="userSpaceOnUse">
      <stop offset="0.01" stop-color="#003a90"/>
      <stop offset="0.16" stop-color="#034195"/>
      <stop offset="0.38" stop-color="#0c54a2"/>
      <stop offset="0.63" stop-color="#1972b7"/>
      <stop offset="0.92" stop-color="#2d9dd5"/>
      <stop offset="1" stop-color="#33abdf"/>
    </linearGradient>
    <linearGradient id="linear-gradient-2" x1="242.89" y1="166.52" x2="242.89" y2="56.82" xlink:href="#linear-gradient"/>
    <linearGradient id="linear-gradient-3" x1="278.75" y1="166.52" x2="278.75" y2="56.82" xlink:href="#linear-gradient"/>
    <linearGradient id="linear-gradient-4" x1="308.62" y1="166.52" x2="308.62" y2="56.82" xlink:href="#linear-gradient"/>
    <linearGradient id="linear-gradient-5" x1="295.13" y1="166.52" x2="295.13" y2="56.82" xlink:href="#linear-gradient"/>
    <linearGradient id="linear-gradient-6" x1="349.63" y1="166.52" x2="349.63" y2="56.82" xlink:href="#linear-gradient"/>
    <linearGradient id="linear-gradient-7" x1="372.1" y1="166.52" x2="372.1" y2="56.82" xlink:href="#linear-gradient"/>
    <linearGradient id="linear-gradient-8" x1="387.9" y1="166.52" x2="387.9" y2="56.82" xlink:href="#linear-gradient"/>
    <linearGradient id="linear-gradient-9" x1="402.42" y1="166.52" x2="402.42" y2="56.82" xlink:href="#linear-gradient"/>
    <linearGradient id="linear-gradient-10" x1="80.71" y1="151.52" x2="159.92" y2="151.52" xlink:href="#linear-gradient"/>
    <linearGradient id="linear-gradient-11" x1="54" y1="129.97" x2="122.15" y2="129.97" gradientUnits="userSpaceOnUse">
      <stop offset="0" stop-color="#08c"/>
      <stop offset="1" stop-color="#8bd7f8"/>
    </linearGradient>
    <linearGradient id="linear-gradient-12" x1="37.85" y1="97.92" x2="98.42" y2="97.92" xlink:href="#linear-gradient"/>
  </defs>
  <title>584c645a-074b-4b03-b81c-3f36628f8999</title>
  <g>
    <path class="cls-1" d="M173.8,161.7h7v1.4h-5.3v4.3h4.9v1.4h-4.9v5.9h-1.7v-13Z"/>
    <path class="cls-1" d="M187.4,174.7v-1.2h-0.1a3.5,3.5,0,0,1-2.9,1.4,2.7,2.7,0,0,1-2.9-2.7c0-2.3,2-3.5,5.6-3.5v-0.2a1.9,1.9,0,0,0-2.1-2.2,4.7,4.7,0,0,0-2.4.7l-0.4-1.1a5.8,5.8,0,0,1,3.1-.8c2.9,0,3.6,2,3.6,3.8v3.5a13.2,13.2,0,0,0,.2,2.2h-1.5Zm-0.3-4.8c-1.9,0-4,.3-4,2.1a1.5,1.5,0,0,0,1.6,1.6,2.3,2.3,0,0,0,2.3-1.6,1.8,1.8,0,0,0,.1-0.5v-1.6Z"/>
    <path class="cls-1" d="M198.3,174.4a6.3,6.3,0,0,1-2.7.5,4.4,4.4,0,0,1-4.7-4.8,4.8,4.8,0,0,1,5-5,5.7,5.7,0,0,1,2.4.5l-0.4,1.3a4,4,0,0,0-2-.4,3.5,3.5,0,0,0-.1,7,4.8,4.8,0,0,0,2.1-.5Z"/>
    <path class="cls-1" d="M202.1,162.7a1.1,1.1,0,0,1-2.1,0,1,1,0,0,1,1.1-1.1A1,1,0,0,1,202.1,162.7Zm-1.9,12v-9.4h1.7v9.4h-1.7Z"/>
    <path class="cls-1" d="M210,174.7v-1.2h-0.1a3.5,3.5,0,0,1-2.9,1.4,2.7,2.7,0,0,1-2.9-2.7c0-2.3,2-3.5,5.6-3.5v-0.2a1.9,1.9,0,0,0-2.1-2.2,4.7,4.7,0,0,0-2.4.7l-0.4-1.1a5.8,5.8,0,0,1,3.1-.8c2.9,0,3.6,2,3.6,3.8v3.5a13.2,13.2,0,0,0,.2,2.2H210Zm-0.3-4.8c-1.9,0-4,.3-4,2.1a1.5,1.5,0,0,0,1.6,1.6,2.3,2.3,0,0,0,2.3-1.6,1.8,1.8,0,0,0,.1-0.5v-1.6Z"/>
    <path class="cls-1" d="M214.1,161h1.7v13.7h-1.7V161Z"/>
    <path class="cls-1" d="M227.9,174.7v-1.2h-0.1a3.5,3.5,0,0,1-2.9,1.4,2.7,2.7,0,0,1-2.9-2.7c0-2.3,2-3.5,5.6-3.5v-0.2a1.9,1.9,0,0,0-2.1-2.2,4.7,4.7,0,0,0-2.4.7l-0.4-1.1a5.8,5.8,0,0,1,3.1-.8c2.9,0,3.6,2,3.6,3.8v3.5a13.2,13.2,0,0,0,.2,2.2h-1.5Zm-0.3-4.8c-1.9,0-4,.3-4,2.1a1.5,1.5,0,0,0,1.6,1.6,2.3,2.3,0,0,0,2.3-1.6,1.8,1.8,0,0,0,.1-0.5v-1.6Z"/>
    <path class="cls-1" d="M232.1,167.9c0-1,0-1.8-.1-2.5h1.5v1.5h0a3.4,3.4,0,0,1,3.1-1.8c1.3,0,3.3.8,3.3,4v5.6h-1.7v-5.4c0-1.5-.6-2.8-2.2-2.8a2.4,2.4,0,0,0-2.3,1.7,2.5,2.5,0,0,0-.1.8v5.6h-1.7v-6.8Z"/>
    <path class="cls-1" d="M250.9,161v11.3c0,0.8,0,1.8.1,2.4h-1.5v-1.6h0a3.5,3.5,0,0,1-3.2,1.8c-2.3,0-4-1.9-4-4.8s1.9-5,4.2-5a3.1,3.1,0,0,1,2.8,1.4h0V161h1.7Zm-1.7,8.2a3,3,0,0,0-.1-0.7,2.5,2.5,0,0,0-2.5-2c-1.8,0-2.8,1.5-2.8,3.6s0.9,3.5,2.8,3.5a2.6,2.6,0,0,0,2.5-2,3,3,0,0,0,.1-0.7v-1.6Z"/>
    <path class="cls-1" d="M257.9,161.8a16.3,16.3,0,0,1,3.1-.3,5.4,5.4,0,0,1,3.6.9,2.7,2.7,0,0,1,1.1,2.3,3.1,3.1,0,0,1-2.2,2.9h0a3.4,3.4,0,0,1,2.7,3.3,3.5,3.5,0,0,1-1.1,2.6c-0.9.8-2.4,1.2-4.5,1.2l-2.6-.2V161.8Zm1.7,5.3h1.5c1.8,0,2.8-.9,2.8-2.2s-1.2-2.1-2.9-2.1h-1.5v4.2Zm0,6.2H261c1.7,0,3.3-.6,3.3-2.5s-1.5-2.5-3.4-2.5h-1.4v5Z"/>
    <path class="cls-1" d="M276.9,169.9a4.6,4.6,0,0,1-4.7,5c-2.5,0-4.5-1.9-4.5-4.8s2.1-5,4.6-5S276.9,167.1,276.9,169.9Zm-7.4.1c0,2.1,1.2,3.6,2.8,3.6s2.8-1.5,2.8-3.6-0.8-3.6-2.8-3.6S269.4,168.3,269.4,170Z"/>
    <path class="cls-1" d="M287.1,161v11.3c0,0.8,0,1.8.1,2.4h-1.5v-1.6h0a3.5,3.5,0,0,1-3.2,1.8c-2.3,0-4-1.9-4-4.8s1.9-5,4.2-5a3.1,3.1,0,0,1,2.8,1.4h0V161h1.7Zm-1.7,8.2a3,3,0,0,0-.1-0.7,2.5,2.5,0,0,0-2.5-2c-1.8,0-2.8,1.5-2.8,3.6s0.9,3.5,2.8,3.5a2.6,2.6,0,0,0,2.5-2,3,3,0,0,0,.1-0.7v-1.6Z"/>
    <path class="cls-1" d="M290.5,165.3l2.1,5.5,0.6,1.9h0l0.6-2,1.9-5.5h1.8l-2.6,6.7c-1.2,3.2-2.1,4.9-3.2,5.9a4.6,4.6,0,0,1-2.1,1.1l-0.4-1.4a4.5,4.5,0,0,0,1.5-.8,5.2,5.2,0,0,0,1.4-1.9V174l-3.5-8.6h1.9Z"/>
    <path class="cls-1" d="M311.2,161v11.3c0,0.8,0,1.8.1,2.4h-1.5v-1.6h0a3.5,3.5,0,0,1-3.2,1.8c-2.3,0-4-1.9-4-4.8s1.9-5,4.2-5a3.1,3.1,0,0,1,2.8,1.4h0V161h1.7Zm-1.7,8.2a3,3,0,0,0-.1-0.7,2.5,2.5,0,0,0-2.5-2c-1.8,0-2.8,1.5-2.8,3.6s0.9,3.5,2.8,3.5a2.6,2.6,0,0,0,2.5-2,3,3,0,0,0,.1-0.7v-1.6Z"/>
    <path class="cls-1" d="M315,170.3a3,3,0,0,0,3.2,3.3,6.2,6.2,0,0,0,2.6-.5l0.3,1.2a7.6,7.6,0,0,1-3.1.6,4.3,4.3,0,0,1-4.6-4.7c0-2.8,1.7-5,4.4-5s3.9,2.7,3.9,4.4a6.5,6.5,0,0,1-.1.8H315Zm5-1.2c0-1.1-.4-2.8-2.4-2.8a2.8,2.8,0,0,0-2.6,2.8h5Z"/>
    <path class="cls-1" d="M323.5,173a4.5,4.5,0,0,0,2.2.7c1.2,0,1.8-.6,1.8-1.4s-0.5-1.3-1.7-1.7-2.5-1.5-2.5-2.7,1.2-2.7,3.2-2.7a4.7,4.7,0,0,1,2.3.6l-0.4,1.2a3.6,3.6,0,0,0-1.9-.5,1.4,1.4,0,0,0-1.6,1.3c0,0.8.6,1.1,1.8,1.6s2.5,1.4,2.5,2.8-1.3,2.8-3.5,2.8a5.3,5.3,0,0,1-2.6-.6Z"/>
    <path class="cls-1" d="M333.3,162.7a1.1,1.1,0,0,1-2.1,0,1,1,0,0,1,1.1-1.1A1,1,0,0,1,333.3,162.7Zm-1.9,12v-9.4h1.7v9.4h-1.7Z"/>
    <path class="cls-1" d="M344,165.3c0,0.7-.1,1.4-0.1,2.6v5.4c0,2.1-.4,3.5-1.3,4.3a5,5,0,0,1-3.4,1.1,6,6,0,0,1-3.1-.8l0.4-1.3a5.3,5.3,0,0,0,2.7.7c1.7,0,3-.9,3-3.3v-1h0a3.3,3.3,0,0,1-3,1.6c-2.3,0-4-2-4-4.6s2.1-5,4.2-5a3.1,3.1,0,0,1,2.9,1.6h0v-1.4H344Zm-1.8,3.7a2.4,2.4,0,0,0-.1-0.8,2.5,2.5,0,0,0-2.4-1.8c-1.6,0-2.8,1.4-2.8,3.5s0.9,3.4,2.8,3.4a2.5,2.5,0,0,0,2.4-1.7,3,3,0,0,0,.1-0.9V169Z"/>
    <path class="cls-1" d="M346.6,167.9c0-1,0-1.8-.1-2.5H348v1.5h0a3.4,3.4,0,0,1,3.1-1.8c1.3,0,3.3.8,3.3,4v5.6h-1.7v-5.4c0-1.5-.6-2.8-2.2-2.8a2.4,2.4,0,0,0-2.3,1.7,2.5,2.5,0,0,0-.1.8v5.6h-1.7v-6.8Z"/>
    <path class="cls-1" d="M368.1,174.4a6.3,6.3,0,0,1-2.7.5,4.4,4.4,0,0,1-4.7-4.8,4.8,4.8,0,0,1,5-5,5.7,5.7,0,0,1,2.4.5l-0.4,1.3a4,4,0,0,0-2-.4,3.5,3.5,0,0,0-.1,7,4.8,4.8,0,0,0,2.1-.5Z"/>
    <path class="cls-1" d="M370.9,170.3a3,3,0,0,0,3.2,3.3,6.2,6.2,0,0,0,2.6-.5l0.3,1.2a7.6,7.6,0,0,1-3.1.6,4.3,4.3,0,0,1-4.6-4.7c0-2.8,1.7-5,4.4-5s3.9,2.7,3.9,4.4a6.5,6.5,0,0,1-.1.8h-6.6Zm5-1.2c0-1.1-.4-2.8-2.4-2.8a2.8,2.8,0,0,0-2.6,2.8h5Z"/>
    <path class="cls-1" d="M379.7,167.9c0-1,0-1.8-.1-2.5h1.5v1.5h0a3.4,3.4,0,0,1,3.1-1.8c1.3,0,3.3.8,3.3,4v5.6H386v-5.4c0-1.5-.6-2.8-2.2-2.8a2.4,2.4,0,0,0-2.3,1.7,2.5,2.5,0,0,0-.1.8v5.6h-1.7v-6.8Z"/>
    <path class="cls-1" d="M392.4,162.7v2.7h2.4v1.3h-2.4v5c0,1.2.3,1.8,1.3,1.8h1v1.3a4.2,4.2,0,0,1-1.5.2,2.4,2.4,0,0,1-1.8-.7,3.5,3.5,0,0,1-.7-2.4v-5.1h-1.5v-1.3h1.5v-2.2Z"/>
    <path class="cls-1" d="M397.6,170.3a3,3,0,0,0,3.2,3.3,6.2,6.2,0,0,0,2.6-.5l0.3,1.2a7.6,7.6,0,0,1-3.1.6,4.3,4.3,0,0,1-4.6-4.7c0-2.8,1.7-5,4.4-5s3.9,2.7,3.9,4.4a6.5,6.5,0,0,1-.1.8h-6.6Zm5-1.2c0-1.1-.4-2.8-2.4-2.8a2.8,2.8,0,0,0-2.6,2.8h5Z"/>
    <path class="cls-1" d="M406.3,168.3c0-1.1,0-2.1-.1-2.9h1.5v1.8h0.1a2.8,2.8,0,0,1,2.6-2.1h0.5v1.6h-0.6a2.4,2.4,0,0,0-2.3,2.2,4.8,4.8,0,0,0-.1.8v5h-1.7v-6.4Z"/>
  </g>
  <g>
    <path class="cls-2" d="M185.3,141.6a20.1,20.1,0,0,1-2.6-6c-7-.4-8.9-7.1-7.3-13s7.6-12.8,14.6-15.7c9-3.7,19.6-2.7,29.9-.3,3.7-1.5,5.9-.2,5,2.3a33.6,33.6,0,0,0-4.3-1.2c-1.6.9-3.2,3.3-5.1,6.8l-4.4,8c-5,8.8-11.3,15.3-20.3,18.5l-3.2.9c4.6,7.5,14.4,7.7,19.2,2.3,0.6-.7.8-0.3,0.3,0.2-5.1,5.9-15.7,5.8-21.5-2.2-5.2.8-10.3,0.1-13.3-3.7-0.8-.9-1.1-2.7.7-3.3C174.6,141,180,142.3,185.3,141.6Zm5.3-32.7c-6.3,3.6-10.7,10-11.7,15.2s-0.3,9,3.5,10.3a18.8,18.8,0,0,1-.3-3c-0.2-4.2,1.8-11.3,6.6-16.2,9.3-9.3,18.1-5.6,13.5,5.8-2.2,5.5-6.9,11.3-13.3,13.5a21.3,21.3,0,0,1-3.4.8,16,16,0,0,0,1.9,5.7l3.2-.9c8.5-3.3,12.1-9.8,17-18.5l2.1-3.8c3.1-5.3,5.6-8.5,9.1-10.8C207.7,104.7,198.3,104.4,190.5,108.8Zm-5.3,25.8,2-.3c7.6-1.9,11.9-8.4,14-13.2,3.8-8.9-1.1-13.9-9.1-5.4C187.2,120.9,184.6,128.8,185.3,134.6Z"/>
    <path class="cls-3" d="M261,106.8l2.1-1.1c3.3-1.4,7-.9,8.8,1.9,0.6,1,.8,2.5-1.1,3.1,0-3.2-2.6-6.4-6.3-4.8a9.1,9.1,0,0,0-2.2,1.4c5.7,2.3,9.2,6.8,4.7,10.8-1.3,1.1-4.2,2.1-7.6,2.4,7.5,2,8.4,8.7,4.5,12.5s-13.3,5.9-20.8,1.9a32.6,32.6,0,0,1-10.6,6.1l-3.2.9c4.6,7.5,14.4,7.7,19.2,2.3,0.6-.7.8-0.3,0.3,0.2-5.1,5.9-15.7,5.8-21.5-2.2-5.2.8-10.3,0.1-13.3-3.7-0.8-.9-1.1-2.7.7-3.3,1.5,5.8,6.8,7.1,12.1,6.3a20.4,20.4,0,0,1-2.6-5.9c-7-.4-8.9-7.1-7.3-13,3.1-11.2,13.7-17.4,25.5-18.3A46.4,46.4,0,0,1,261,106.8Zm-32.1,34.4a21.3,21.3,0,0,0,3.2-.9c8.5-3.3,12.1-9.8,17-18.5l2.2-3.7c2.3-3.8,5-8.1,8.8-10.7a42,42,0,0,0-17.5-2c-10.7,1.1-20.3,9.1-22.1,18.8-0.8,4.2-.3,9,3.5,10.3a18.8,18.8,0,0,1-.3-3c-0.2-4.2,1.8-11.3,6.6-16.2,9.3-9.3,18.1-5.6,13.5,5.8-2.2,5.5-6.9,11.3-13.3,13.5a21.2,21.2,0,0,1-3.4.8A16.8,16.8,0,0,0,228.9,141.2Zm-2-6.5,2-.3c7.6-1.9,11.9-8.4,14-13.2,3.8-8.9-1.1-13.9-9.1-5.4C228.9,120.9,226.3,128.8,227,134.7Zm26.9-14.1-2.2,3.9a38.6,38.6,0,0,1-7.9,9.9c6.6,3.4,14.4,2.5,17.7-3.6C263.9,126.3,262.2,120.4,253.8,120.5Zm7.8-12.7c-2,1.9-3.5,4.6-4.9,7.2l-2.4,4.5c5.2,0.5,8.7-1.1,10.2-2.8C267.3,113.6,266.4,109.8,261.6,107.9Z"/>
    <path class="cls-4" d="M281.8,122.6c1.5-2.4,2.9-2.7,5.3-2.7l-6.9,12.5c-1.7,3,.7,1.7,2.7.3a23.4,23.4,0,0,0,5.6-6.5c0.2-.4.6-0.1,0.4,0.2-3.2,5.4-7.6,9.1-10.4,9.1-1.1,0-2.2-1-1.6-3.4-1.8,2.2-3.8,3.4-5.6,3.4-3.5-.1-3.2-4.3-1.2-7.9s6.1-8.6,10.1-7.9C281.5,119.8,282,120.9,281.8,122.6Zm-7.8,4.9c-2.2,4-2.9,6.9-1.2,6.9s4.1-2.9,6.3-6.9,2.7-6.7,1.3-6.7S276.2,123.5,273.9,127.5Z"/>
    <path class="cls-5" d="M291.4,119.9c5.4-9.5,12.8-19.8,22.4-23.2,6.7-2.3,12.8-2.7,16.9,2.4,0.8,0.9,1.1,2.7-.7,3.3-2-7.8-9.4-7.6-15.8-5.1-8.5,3.3-14.9,15.4-19.7,24.1l-0.3.6c1.5-1.6,3.1-2.5,4.8-2.5,3.5,0.1,3.2,4.3,1.1,7.9s-7.7,7.9-11.3,7.9-4.4-2.7-.9-8.9Zm4.7,7.6c2.2-4,2.3-6.7.9-6.7s-3.5,2.4-5.6,6.2l-0.3.5c-2.2,4.1-3.1,7.3-1.8,7.3S293.9,131.6,296.1,127.5Z"/>
    <path class="cls-6" d="M309.3,131.1c-2.1,2.1-5.1,4.3-6.9,4.3s-2.9-1.8-.5-5.9l5.3-9.6c1.4,0,3.2.9,1.6,3.8l-4.8,8.7c-1.5,2.8.7,1.9,3.1,0a18.1,18.1,0,0,0,3.7-3.8l3-5.4c1.6-2.9,3-3.2,5.5-3.2l-8.4,15.2c-5.3,9.6-12.7,19.8-22.3,23.2-6.7,2.3-12.8,2.7-16.9-2.4-0.8-.9-1.1-2.7.7-3.3,2,7.8,9.4,7.6,15.8,5.1,8.5-3.3,14.8-15.5,19.7-24.1Z"/>
    <path class="cls-7" d="M334.4,106.9c9-3.7,19.8-3.9,29.4-1l7.4,2.2c5.8,1.7,8.8,1.7,10.6,0a2.6,2.6,0,0,0,.3-3.1c-0.2-.2.2-0.4,0.4-0.1a3.1,3.1,0,0,1-.3,3.5c-1.4,1.7-4.3,2.2-7.2,2.2a54.3,54.3,0,0,1-8.3-1.2l-2.9-.6a28.3,28.3,0,0,0-3.6,5.6l-3,5.6c5.5,0.4,8.3,0,10.3-.6-0.8,2-1.5,2.9-3,3.1s-5.5-.7-7.8-1.6l-0.8,1.5c-5,8.8-11.3,15.3-20.3,18.5l-3.2.9c4.6,7.5,14.4,7.7,19.2,2.3,0.6-.7.8-0.3,0.3,0.2-5.1,5.9-15.7,5.8-21.5-2.2-5.2.8-10.3,0.1-13.3-3.7-0.8-.9-1.1-2.7.7-3.3,1.5,5.8,6.9,7.1,12.1,6.3a20.1,20.1,0,0,1-2.6-6c-7-.4-8.9-7.1-7.3-13A24,24,0,0,1,334.4,106.9ZM332,141.2l3.2-.9c8.5-3.3,12.1-9.8,17-18.5l2.1-3.8c2.5-4.4,4.7-7.4,7.4-9.6l-3.7-.8c-7.9-1.8-15.1-3.7-22.8.7s-10.8,10.6-11.7,15.9-0.3,9,3.5,10.3a18.8,18.8,0,0,1-.3-3c-0.2-4.2,1.8-11.3,6.6-16.2,9.3-9.3,18.1-5.6,13.5,5.8-2.2,5.5-6.9,11.3-13.3,13.5a21.3,21.3,0,0,1-3.4.8A16,16,0,0,0,332,141.2Zm0-6.9c7.6-1.9,11.9-8.4,14-13.2,3.8-8.9-1.1-13.9-9.1-5.4-5,5.3-7.6,13.1-6.9,19Z"/>
    <path class="cls-8" d="M375.1,122.6c1.5-2.4,2.9-2.7,5.3-2.7l-6.9,12.5c-1.7,3,.7,1.7,2.7.3a23.4,23.4,0,0,0,5.6-6.5c0.2-.4.6-0.1,0.4,0.2-3.2,5.4-7.6,9.1-10.4,9.1-1.1,0-2.2-1-1.6-3.4-1.8,2.2-3.8,3.4-5.6,3.4-3.5-.1-3.2-4.3-1.2-7.9s6.1-8.6,10.1-7.9C374.8,119.8,375.3,120.9,375.1,122.6Zm-7.8,4.9c-2.2,4-2.9,6.9-1.2,6.9s4.1-2.9,6.3-6.9,2.7-6.7,1.3-6.7S369.5,123.5,367.3,127.5Z"/>
    <path class="cls-9" d="M391,125.4a1.5,1.5,0,0,1-1.6-1.6,2.4,2.4,0,0,1,3-1.6c0.6-1.2-.1-1.8-1.2-1.8-2.7-.2-5.4,3.5-6.9,5.8a13.9,13.9,0,0,0-1.5,2.9c-0.9,2.1-.9,4.1.3,5s5.4,0.2,7.9-1.7a22.9,22.9,0,0,0,5.4-6.1c0.2-.4.6-0.1,0.4,0.2a21.5,21.5,0,0,1-5.4,6.4c-2.7,2.1-5.6,3.3-9.2,2.3s-4.3-3.6-2.4-7.8,6.1-7.7,10.9-7.7S395,125.4,391,125.4Z"/>
    <path class="cls-10" d="M405.1,119.6c2.7,0,4.7,1.6,2.8,4.5s-6.5,4.2-10.7,4.9c-0.9,2.1-.9,4.1.4,5s5.4,0.2,8-1.7a22.8,22.8,0,0,0,5.3-6.1c0.2-.4.6-0.1,0.4,0.2a21.7,21.7,0,0,1-5.5,6.4c-2.7,2.1-5.7,3.3-9.2,2.3s-4.3-3.6-2.4-7.8S400.4,119.6,405.1,119.6Zm-6.3,6.5-1.3,2.3a10.6,10.6,0,0,0,7.1-4.9c1.1-1.9,1.2-3.3.1-3.3S400.9,122.7,398.8,126.1Z"/>
  </g>
  <g>
    <path class="cls-11" d="M83.5,224.5s-0.6-39,34.6-37.8c0,0,32.9,6.3,30.5-8.8,0,0-5.6-8.4.8-10.9s2.3-8.8,2.3-8.8,7.8-4.8,2-8.8c0,0-4.5-4.3.5-8.1s10-4.7-1.3-13.5-14.6-13.8-14.3-26.8-11.3-22.6-11.3-22.6,7.2,17.4-14.9,41.4S73.9,164.7,83.5,224.5Z"/>
    <path class="cls-12" d="M83.2,228.3S54.3,174.1,102,120.4s-4.4-88.7-4.4-88.7S121,62.1,72.4,106.1C25.4,148.6,83.2,228.3,83.2,228.3Z"/>
    <path class="cls-13" d="M86.5,227.9s3.8-42.9,36.7-35.3S166,170.1,166,170.1s1.2,27.6-23.9,39.4S99.3,207.3,86.5,227.9Z"/>
    <path class="cls-14" d="M86.8,24.4s31.5,30.9-9,69c-37.9,35.6-30.1,61.4-24.3,78,0,0-32.5-33.1-3.7-71.5S98.9,64.7,86.8,24.4Z"/>
  </g>
</svg>
